<?xml version="1.0" encoding="UTF-8"?>
<!DOCTYPE svg PUBLIC "-//W3C//DTD SVG 1.1//EN" "http://www.w3.org/Graphics/SVG/1.1/DTD/svg11.dtd">
<!-- Creator: CorelDRAW 2026 -->
<svg xmlns="http://www.w3.org/2000/svg" xml:space="preserve" width="127mm" height="127mm" version="1.1" style="shape-rendering:geometricPrecision; text-rendering:geometricPrecision; image-rendering:optimizeQuality; fill-rule:evenodd; clip-rule:evenodd"
viewBox="0 0 12700 12700"
 xmlns:xlink="http://www.w3.org/1999/xlink"
 xmlns:xodm="http://www.corel.com/coreldraw/odm/2003">
 <defs>
  <style type="text/css">
   <![CDATA[
    .fil0 {fill:#0E4A2E}
    .fil1 {fill:#C39A4E}
    .fil2 {fill:#0E4A2E;fill-rule:nonzero}
    .fil3 {fill:#C39A4E;fill-rule:nonzero}
   ]]>
  </style>
 </defs>
 <g id="Layer_x0020_1">
  <metadata id="CorelCorpID_0Corel-Layer"/>
  <g id="_841729088">
   <path class="fil0" d="M4376.17 3547.5c-13.19,13.2 -1.46,23.46 30.79,27.86 227.24,31.52 386.3,164.93 432.49,362.85 19.79,86.5 19.06,2454.89 -0.74,2554.58 -32.25,159.8 -109.21,238.24 -257.29,263.16 -38.11,6.59 -52.77,12.45 -54.24,21.26 -2.21,11.71 24.92,12.45 367.98,12.45 356.98,0 370.91,-0.74 370.91,-13.93 0,-10.25 -7.33,-13.92 -35.19,-17.59 -122.42,-14.66 -201.58,-75.5 -243.36,-186.92 -35.93,-96.03 -36.65,-123.14 -35.19,-1404.47l2.2 -1194.09 293.21 376.77c161.26,207.44 337.92,434.69 392.17,505.06 54.98,70.36 218.43,280 362.84,465.46 144.4,185.45 291.02,373.11 325.47,417.83 33.71,43.98 152.46,197.91 263.89,340.85 306.39,395.83 322.52,415.62 389.23,504.32 59.37,78.43 64.5,82.83 120.95,110.68 79.17,39.59 137.81,57.91 222.1,70.37 75.5,11.73 228.7,14.67 228.7,5.14 0,-2.94 -25.65,-36.65 -57.17,-74.77 -30.79,-38.12 -117.29,-148.8 -192.05,-245.57 -74.04,-96.75 -194.99,-253.62 -267.56,-348.18 -73.3,-94.56 -300.53,-391.43 -505.78,-659.72 -490.4,-640.66 -513.12,-670.72 -791.67,-1029.89 -131.21,-169.34 -332.79,-431.76 -448.61,-582.76 -115.81,-151.01 -214.04,-277.09 -218.43,-280.01 -8.81,-6.6 -689.05,-7.33 -695.65,-0.74l0 0zm2771.56 152.47c-263.15,42.52 -464.74,182.52 -565.89,393.64 -137.81,286.61 -62.3,581.29 210.38,825.38 79.89,71.1 211.11,161.27 379.71,261.68 388.49,230.91 489.65,295.42 615.73,392.91 412.69,318.86 565.16,755.01 420.76,1203.63 -128.28,396.56 -456.68,669.97 -889.16,738.88 -74.04,12.46 -282.95,12.46 -356.25,0 -282.22,-45.45 -509.45,-159.8 -703.7,-355.52 -80.63,-80.63 -200.12,-231.63 -183.99,-231.63 2.93,0 -2.2,-6.6 -10.26,-14.66 -33.72,-33.72 -94.56,-178.86 -120.96,-287.35 -23.45,-95.29 -24.91,-261.69 -4.39,-361.38 32.99,-158.33 118.75,-306.41 221.37,-381.9 68.17,-49.85 38.86,-63.78 -36.65,-17.6 -203.05,123.15 -310.8,317.4 -311.53,564.43 -1.47,266.09 118.75,514.58 362.84,752.09 446.41,432.47 1123.73,534.36 1652.24,247.02 241.9,-131.21 444.94,-345.25 560.03,-588.62 191.32,-408.29 167.86,-876.69 -62.31,-1229.27 -158.33,-243.37 -357.72,-411.23 -787.27,-661.92 -398.03,-232.38 -504.31,-304.21 -597.41,-403.9 -123.14,-131.2 -171.53,-281.48 -139.28,-435.41 83.57,-398.77 679.52,-468.4 1019.64,-119.49 124.61,127.56 218.44,318.14 252.16,511.66 9.53,52.77 17.59,69.63 30.79,61.57 2.92,-2.2 5.86,-147.34 5.86,-322.54l0 -318.12 -89.42 -44.72c-162.01,-81.37 -343.8,-143.67 -496.99,-171.53 -95.3,-16.86 -292.49,-21.25 -376.05,-7.33l0 0z"/>
   <path class="fil1" d="M6095.84 2732.38c-153.93,33.73 -239.7,169.33 -207.44,327.66 45.45,219.17 330.6,409.77 768.95,515.32 44.71,10.26 54.97,16.13 60.83,30.79 5.87,16.86 -2.93,27.85 -120.21,143.67 -140.01,139.28 -203.05,220.64 -261.7,338.65 -175.19,351.85 -84.29,725.7 241.17,996.18 101.15,83.57 196.45,144.41 469.87,297.61 273.42,153.21 342.32,196.45 450.81,283.69 241.89,194.25 350.39,398.76 350.39,658.24 0.72,416.37 -307.15,761.62 -764.55,859.11 -88.69,19.06 -329.12,19.06 -417.82,0 -364.32,-77.7 -662.66,-344.52 -729.36,-652.39l-9.53 -45.45 -0.73 32.99c-0.74,42.52 28.59,164.93 57.18,237.5 45.44,113.61 63.76,141.48 149.53,227.96 548.3,549.04 1543.01,351.13 1792.24,-356.97 125.35,-354.06 14.66,-711.77 -300.54,-977.86 -102.63,-85.76 -222.1,-164.19 -460.34,-299.8 -439.81,-251.42 -571.02,-351.85 -686.11,-524.84 -85.02,-127.56 -122.41,-248.51 -122.41,-398.77 -0.74,-237.5 100.43,-449.34 323.26,-679.52 82.84,-85.02 82.84,-85.02 107.76,-78.43 32.25,8.8 68.91,-5.86 90.17,-35.18 14.65,-21.26 19.05,-22.72 87.22,-27.12 258.76,-18.33 467.66,-81.37 628.93,-189.86 73.31,-49.11 156.87,-140.01 190.59,-205.97 28.59,-56.45 29.32,-59.38 29.32,-135.61 0,-71.11 -1.46,-81.37 -21.26,-120.22 -52.77,-104.09 -170.06,-153.94 -302,-126.81 -203.78,41.04 -404.63,237.5 -604.75,590.08 -45.44,81.37 -48.37,85.03 -69.63,82.83 -30.79,-4.4 -35.91,-10.26 -54.24,-73.3 -118.76,-401.7 -308.61,-653.12 -524.84,-694.17 -65.98,-13.2 -79.91,-13.2 -140.75,0l-0.01 -0.01zm195.73 132.68c140.73,69.64 273.41,252.9 408.28,565.89 52.05,120.95 51.32,122.42 -65.24,82.1 -411.22,-141.47 -690.51,-386.3 -643.58,-562.96 30.05,-110.69 168.59,-149.53 300.54,-85.03l0 0zm1341.42 78.43c79.17,38.86 102.63,127.55 57.19,218.45 -76.25,156.13 -354.05,319.6 -638.47,376.77 -194.25,38.85 -199.38,33.72 -106.29,-104.82 89.43,-134.14 149.54,-210.37 233.1,-296.87 178.87,-184.73 335.73,-251.43 454.47,-193.52l0 -0.01z"/>
   <path class="fil2" d="M2941.71 7946.51l0 -32.58c46.25,3.75 82.76,5.62 109.35,5.62 21.53,0 59.91,-1.87 115.33,-5.62l155.78 194.73c14.23,17.22 124.51,150.54 330.47,400.12 0,-51.3 0,-88.38 0,-111.41 0,-54.48 -1.5,-154.09 -4.49,-299.01 -1.31,-67.59 -3,-104.29 -5.06,-110.09 -2.06,-6 -6.18,-11.24 -12.73,-15.92 -6.37,-4.87 -31.83,-11.42 -76.39,-19.85 -5.99,-1.12 -14.42,-2.99 -25.84,-5.99l0 -32.58c65.16,3.75 116.83,5.62 155.41,5.62 37.25,0 88.74,-1.87 154.65,-5.62l0 32.58c-9.92,2.62 -17.22,4.12 -21.91,4.87 -49.05,10.3 -76.39,17.04 -81.82,20.41 -4.12,2.06 -7.3,5.43 -9.92,9.74 -3.56,5.99 -6.18,16.85 -7.68,32.95 -0.18,6.93 -0.56,56.73 -1.31,149.6 -0.56,92.68 -0.93,182.37 -0.93,268.87 0,102.42 1.12,188.92 3.37,259.51l-35.77 16.47 -228.8 -285.16 -300.32 -362.11 2.81 325.23c1.87,142.3 3.74,218.32 5.99,227.86 1.5,6.56 4.87,12.36 9.92,17.04 8.05,7.31 35.39,14.98 82.2,23.22 5.43,0.56 13.67,2.25 24.71,4.87l0 32.58c-55.98,-3.75 -103.16,-5.62 -141.55,-5.62 -32.2,0 -88.37,1.87 -168.51,5.62l0 -32.58c12.73,-3 22.47,-5.06 29.02,-6.56 43.63,-7.67 68.91,-14.79 75.83,-21.34 4.12,-3.37 6.93,-8.99 8.8,-17.04 3.56,-16.85 6.18,-80.51 7.68,-190.79 1.87,-156.53 2.81,-249.02 2.81,-277.48 0,-91.75 -1.31,-142.86 -3.93,-152.97 -1.5,-7.31 -6.18,-13.48 -14.23,-18.35 -8.05,-5.06 -42.51,-12.55 -103.36,-22.85 -6.55,-1.12 -16.47,-2.99 -29.58,-5.99zm1698.33 -32.58l0 32.58c-12.74,2.81 -22.1,4.68 -28.28,5.62 -48.3,8.43 -76.2,16.29 -83.88,23.97 -7.67,7.49 -11.42,24.15 -11.42,50.17l0 19.1 -2.81 220.75 1.69 320.74c0,25.46 3.74,41.75 11.23,48.68 7.49,7.11 33.14,13.1 76.77,18.16 8.42,1.12 20.59,3.18 36.7,6.18l0 32.58c-58.8,-3.75 -115.34,-5.62 -169.83,-5.62 -56.17,0 -117.95,1.87 -185.17,5.62l0 -32.58c10.48,-3 18.53,-4.87 23.96,-5.62 51.49,-8.42 81.08,-16.1 88.38,-23.4 7.49,-7.12 11.23,-25.09 11.23,-53.93l-1.12 -27.52 1.69 -201.28c0,-206.89 -0.57,-321.29 -1.69,-343.39 -0.75,-11.98 -4.68,-21.34 -11.8,-27.9 -7.11,-6.55 -34.63,-14.41 -82.75,-23.59 -6.56,-1.31 -16.29,-3.55 -29.02,-6.74l0 -32.58c79.57,3.75 141.54,5.62 186.29,5.62 49.81,0 106.54,-1.87 169.83,-5.62zm949.2 208.96l-41.57 0c-9.55,-46.81 -20.22,-81.07 -32.2,-102.61 -12.18,-21.72 -30.34,-38.57 -55.05,-50.92 -24.53,-12.17 -52.24,-18.35 -82.95,-18.35 -43.25,0 -77.89,12.17 -103.54,36.32 -25.65,24.15 -38.57,53.55 -38.57,88 0,30.52 10.49,57.11 31.46,79.76 20.78,22.85 71.52,51.68 152.59,86.69 80.89,35.02 136.12,70.96 165.52,108.04 29.02,37.26 43.63,79.01 43.63,125.44 0,41.57 -10.86,80.33 -32.58,116.28 -21.91,35.76 -54.49,64.41 -98.3,85.75 -43.63,21.35 -90.81,32.02 -141.36,32.02 -34.27,0 -68.91,-3.37 -103.36,-9.93 -34.64,-6.55 -76.02,-17.78 -124.32,-33.88 5.24,-51.68 7.86,-120.21 7.86,-205.59l42.69 0c11.98,55.05 24.53,93.62 37.45,115.53 12.92,22.09 32.58,40.06 58.98,54.29 26.21,14.05 55.04,21.16 86.5,21.16 43.06,0 80.7,-12.17 113.28,-36.32 32.39,-24.16 48.68,-58.05 48.68,-101.67 0,-35.58 -11.61,-67.03 -35.02,-94.55 -23.77,-27.15 -75.26,-57.86 -154.65,-92.12 -79.2,-34.27 -132.19,-67.22 -158.96,-98.68 -26.78,-31.08 -40.07,-68.15 -40.07,-111.4 0,-37.64 10.86,-73.59 32.39,-107.85 21.53,-34.26 53.17,-61.41 95.12,-81.26 41.75,-20.03 85.19,-29.96 130.12,-29.96 54.11,0 119.46,13.11 196.23,39.32 -1.88,53.18 -2.81,85.38 -2.81,96.24 0,22.28 0.93,52.24 2.81,90.25zm1149.92 142.67l-0.56 -38.94 -0.57 -118.15 -1.12 -102.6c-0.37,-15.36 -2.62,-24.91 -6.55,-28.65 -5.81,-6.18 -20.22,-10.86 -42.88,-14.23l-74.14 -16.48 0 -32.58c84.25,3.75 145.1,5.62 182.74,5.62 41.19,0 98.3,-1.87 171.13,-5.62l0 32.58c-60.1,12.36 -93.99,20.22 -101.67,23.59 -7.68,3.19 -12.73,6.93 -15.35,10.86 -3.93,6.74 -6.18,26.78 -6.56,60.48 -0.74,54.67 -1.12,148.67 -1.12,281.79l2.25 259.88 0 15.36c0,17.22 3.18,28.08 9.36,32.95 10.3,7.68 48.31,17.04 114.21,28.46l0 32.58c-100.54,-3.75 -164.39,-5.62 -191.54,-5.62 -45.12,0 -99.98,1.87 -164.58,5.62l0 -32.58 100.92 -22.66c6.37,-2.43 11.05,-6.18 14.42,-10.86 5.05,-7.86 7.86,-22.28 8.24,-43.62l2.81 -258.76c-96.62,-0.75 -170.57,-1.12 -222.06,-1.12 -55.43,0 -113.84,0.37 -175.63,1.12l1.68 265.87c0,19.1 1.88,31.27 5.43,36.51 3.75,5.06 13.11,9.93 28.46,14.23 3.75,1.13 33.52,7.49 89.69,19.29l0 32.58c-88.75,-3.75 -151.66,-5.62 -188.36,-5.62 -45.5,0 -100.73,1.87 -165.51,5.62l0 -32.58c39.13,-8.8 68.34,-14.98 87.62,-18.73 14.61,-2.43 23.78,-6.17 27.71,-10.85 5.43,-6.18 8.24,-19.29 8.24,-38.95 1.12,-69.84 1.69,-169.63 1.69,-299.39l-2.81 -271.49 0 -17.41c0,-12.92 -2.06,-21.72 -6.37,-26.59 -4.12,-5.05 -12.92,-9.17 -26.4,-12.36l-90.81 -17.6 0 -32.58c73.96,3.75 135.75,5.62 185.18,5.62 52.05,0 108.97,-1.87 170.94,-5.62l0 32.58 -92.68 18.16c-11.79,2.81 -19.85,6.93 -24.34,12.36 -4.31,5.24 -6.55,14.61 -6.55,28.27l-2.81 260.26c56.73,0.75 116.46,1.12 179.18,1.12 81.26,0 154.28,-0.37 219.07,-1.12zm1061.54 -363.98l34.64 0c49.43,126.75 110.1,270.55 182.18,431.39l127.88 278.98c5.81,9.73 12.17,17.03 19.1,21.72 4.87,3.37 31.64,11.98 80.7,26.21l0 32.58c-66.47,-3.75 -115.53,-5.62 -146.98,-5.62 -32.21,0 -87.07,1.87 -164.58,5.62l0 -32.58c44.19,-9.18 70.03,-16.48 77.33,-21.91 7.3,-5.43 10.86,-11.79 10.86,-19.1 0,-7.67 -3.75,-20.59 -11.42,-38.75l-55.8 -133.69c-77.52,-0.75 -133.87,-1.12 -169.26,-1.12l-149.98 1.12 -57.85 138.55c-9.55,22.29 -14.42,36.14 -14.42,41.57 0,4.68 2.44,8.61 6.93,11.8 4.68,2.99 25.84,8.61 63.85,16.66 4.12,1.12 9.73,2.62 17.03,4.87l0 32.58c-62.53,-3.75 -106.53,-5.62 -132.18,-5.62 -32.58,0 -74.15,1.87 -125.08,5.62l0 -32.58c33.33,-7.3 56.17,-15.54 68.53,-24.53 9.18,-6.93 18.73,-18.54 28.65,-35.01 20.78,-36.14 73.77,-152.6 158.96,-349.01l150.91 -349.75zm-143.61 489.8c50.56,1.5 86.69,2.25 108.41,2.25 6.56,0 62.35,-0.75 167.39,-2.25l-137.99 -327.28 -137.81 327.28zm1266.38 317.93l-39.5 0c-59.92,-174.13 -125.08,-357.25 -195.29,-549.35 -34.64,-95.11 -56.92,-150.72 -66.84,-166.83 -5.06,-8.42 -11.8,-15.35 -19.66,-20.78 -12.17,-7.68 -38.95,-16.29 -80.7,-25.84l0 -32.58c84.44,3.75 138.55,5.62 161.96,5.62 31.08,0 80.88,-1.87 149.6,-5.62l0 32.58c-43.44,11.05 -68.9,19.29 -76.39,25.28 -7.49,5.8 -11.24,12.92 -11.24,21.34 0,7.68 7.68,34.27 23.03,79.95 68.16,206.34 121.14,358 159.15,454.98l149.6 -403.86c-24.52,-66.66 -41,-107.47 -49.61,-122.45 -8.62,-14.98 -17.42,-25.09 -26.59,-30.71 -9.17,-5.43 -35.01,-13.67 -77.89,-24.53l0 -32.58c67.97,3.75 120.77,5.62 158.03,5.62 39.13,0 90.24,-1.87 153.15,-5.62l0 32.58 -19.66 4.87c-30.33,5.99 -49.99,12.36 -58.6,19.29 -5.62,4.68 -8.43,11.79 -8.43,21.34 0,4.12 0.38,7.86 1.13,11.61 2.24,9.55 22.47,69.46 60.85,180.12l117.96 333.65c25.09,-69.27 55.61,-157.65 90.99,-265.31l81.83 -249.02c0.93,-5.24 1.49,-9.74 1.49,-13.67 0,-6.74 -1.87,-11.42 -5.99,-14.6 -3.93,-3.19 -31.27,-12.55 -81.63,-28.28l0 -32.58c67.96,3.75 112.34,5.62 133.12,5.62 24.9,0 66.84,-1.87 125.64,-5.62l0 32.58c-41.76,11.05 -67.6,20.41 -77.89,28.46 -6.56,5.62 -12.74,14.79 -18.54,27.53 -9.55,20.78 -52.43,138.55 -128.44,352.93 -2.06,5.43 -42.32,123.39 -120.58,353.88l-37.82 0 -134.81 -375.97c-12.17,-33.51 -28.28,-75.83 -48.31,-126.76 -48.68,125.45 -109.72,293.02 -183.12,502.73z"/>
   <path class="fil2" d="M3078.88 9977.51c-19.72,0 -37.48,-3.38 -53.28,-10.13 -15.8,-6.75 -28.29,-16.48 -37.47,-29.17 -9.18,-12.69 -13.91,-27.68 -14.18,-44.97l60.77 0c0.81,11.61 4.93,20.8 12.36,27.55 7.42,6.75 17.62,10.13 30.58,10.13 13.24,0 23.63,-3.18 31.2,-9.52 7.56,-6.35 11.34,-14.66 11.34,-24.92 0,-8.37 -2.57,-15.26 -7.7,-20.66 -5.13,-5.4 -11.54,-9.65 -19.24,-12.76 -7.7,-3.11 -18.3,-6.55 -31.8,-10.33 -18.37,-5.4 -33.29,-10.74 -44.77,-16 -11.48,-5.27 -21.34,-13.24 -29.57,-23.91 -8.24,-10.66 -12.36,-24.91 -12.36,-42.74 0,-16.74 4.19,-31.32 12.56,-43.75 8.37,-12.42 20.12,-21.94 35.25,-28.56 15.12,-6.62 32.41,-9.92 51.85,-9.92 29.17,0 52.87,7.08 71.1,21.26 18.23,14.18 28.29,33.97 30.18,59.35l-62.39 0c-0.54,-9.72 -4.66,-17.75 -12.35,-24.1 -7.7,-6.35 -17.9,-9.52 -30.59,-9.52 -11.07,0 -19.92,2.83 -26.54,8.51 -6.61,5.67 -9.92,13.91 -9.92,24.71 0,7.56 2.5,13.84 7.49,18.84 5,4.99 11.21,9.04 18.64,12.15 7.43,3.11 17.89,6.68 31.4,10.74 18.36,5.4 33.35,10.8 44.96,16.2 11.62,5.4 21.61,13.5 29.98,24.31 8.38,10.8 12.56,24.98 12.56,42.54 0,15.12 -3.91,29.16 -11.75,42.13 -7.83,12.96 -19.31,23.29 -34.43,30.99 -15.13,7.7 -33.09,11.55 -53.88,11.55zm370.68 -56.72l-112.62 0 -18.63 53.88 -59.56 0 101.69 -283.18 66.03 0 101.69 283.18 -59.96 0 -18.64 -53.88zm-15.39 -45.37l-40.92 -118.3 -40.91 118.3 81.83 0zm405.12 -183.52l-95.6 184.33 0 98.44 -56.72 0 0 -98.44 -96.01 -184.33 64.01 0 60.76 129.23 60.37 -129.23 63.19 0zm533.96 0l0 282.77 -56.72 0 0 -183.92 -75.75 183.92 -42.95 0 -76.16 -183.92 0 183.92 -56.72 0 0 -282.77 64.42 0 89.93 210.25 89.94 -210.25 64.01 0zm235.37 285.61c-26.47,0 -50.77,-6.22 -72.92,-18.64 -22.15,-12.42 -39.7,-29.64 -52.67,-51.65 -12.96,-22.01 -19.44,-46.93 -19.44,-74.75 0,-27.55 6.48,-52.33 19.44,-74.34 12.97,-22.01 30.52,-39.23 52.67,-51.65 22.15,-12.42 46.45,-18.63 72.92,-18.63 26.74,0 51.11,6.21 73.13,18.63 22.01,12.42 39.43,29.64 52.26,51.65 12.83,22.01 19.24,46.79 19.24,74.34 0,27.82 -6.41,52.74 -19.24,74.75 -12.83,22.01 -30.32,39.23 -52.47,51.65 -22.14,12.42 -46.45,18.64 -72.92,18.64zm0 -50.64c17.02,0 32.01,-3.85 44.97,-11.55 12.96,-7.7 23.09,-18.7 30.38,-33.02 7.3,-14.31 10.94,-30.92 10.94,-49.83 0,-18.9 -3.64,-35.45 -10.94,-49.62 -7.29,-14.18 -17.42,-25.05 -30.38,-32.62 -12.96,-7.56 -27.95,-11.34 -44.97,-11.34 -17.01,0 -32.07,3.78 -45.17,11.34 -13.1,7.57 -23.29,18.44 -30.59,32.62 -7.29,14.17 -10.93,30.72 -10.93,49.62 0,18.91 3.64,35.52 10.93,49.83 7.3,14.32 17.49,25.32 30.59,33.02 13.1,7.7 28.16,11.55 45.17,11.55zm380.82 47.8l-62.39 -110.19 -26.74 0 0 110.19 -56.72 0 0 -282.77 106.14 0c21.88,0 40.52,3.84 55.91,11.54 15.4,7.7 26.94,18.1 34.64,31.2 7.7,13.1 11.54,27.75 11.54,43.95 0,18.64 -5.4,35.45 -16.2,50.44 -10.8,14.99 -26.87,25.32 -48.21,30.99l67.66 114.65 -65.63 0zm-89.13 -152.73l47.4 0c15.39,0 26.87,-3.71 34.43,-11.14 7.57,-7.43 11.35,-17.76 11.35,-30.99 0,-12.97 -3.78,-23.03 -11.35,-30.18 -7.56,-7.16 -19.04,-10.74 -34.43,-10.74l-47.4 0 0 83.05zm307.89 -84.27l0 70.9 95.2 0 0 44.97 -95.2 0 0 74.95 107.36 0 0 46.18 -164.08 0 0 -283.18 164.08 0 0 46.18 -107.36 0zm544.08 -45.77l0 45.77 -75.36 0 0 237 -56.71 0 0 -237 -75.36 0 0 -45.77 207.43 0zm324.09 0l0 282.77 -56.72 0 0 -120.32 -121.13 0 0 120.32 -56.72 0 0 -282.77 56.72 0 0 116.27 121.13 0 0 -116.27 56.72 0zm277.5 228.89l-112.62 0 -18.63 53.88 -59.56 0 101.69 -283.18 66.03 0 101.69 283.18 -59.96 0 -18.64 -53.88zm-15.39 -45.37l-40.92 -118.3 -40.91 118.3 81.83 0zm422.14 99.25l-56.72 0 -128.42 -194.05 0 194.05 -56.72 0 0 -283.18 56.72 0 128.42 194.46 0 -194.46 56.72 0 0 283.18zm441.18 -282.77l0 45.77 -75.36 0 0 237 -56.71 0 0 -237 -75.36 0 0 -45.77 207.43 0zm324.09 0l0 282.77 -56.72 0 0 -120.32 -121.13 0 0 120.32 -56.72 0 0 -282.77 56.72 0 0 116.27 121.13 0 0 -116.27 56.72 0zm277.5 228.89l-112.62 0 -18.63 53.88 -59.56 0 101.69 -283.18 66.03 0 101.69 283.18 -59.96 0 -18.64 -53.88zm-15.39 -45.37l-40.92 -118.3 -40.91 118.3 81.83 0zm422.14 99.25l-56.72 0 -128.42 -194.05 0 194.05 -56.72 0 0 -283.18 56.72 0 128.42 194.46 0 -194.46 56.72 0 0 283.18zm263.73 0l-102.9 -125.99 0 125.99 -56.72 0 0 -282.77 56.72 0 0 126.8 102.9 -126.8 68.47 0 -116.68 140.17 119.92 142.6 -71.71 0zm526.65 -282.77l-95.6 184.33 0 98.44 -56.72 0 0 -98.44 -96.01 -184.33 64.01 0 60.76 129.23 60.37 -129.23 63.19 0zm212.29 285.61c-26.47,0 -50.77,-6.22 -72.92,-18.64 -22.15,-12.42 -39.7,-29.64 -52.67,-51.65 -12.96,-22.01 -19.44,-46.93 -19.44,-74.75 0,-27.55 6.48,-52.33 19.44,-74.34 12.97,-22.01 30.52,-39.23 52.67,-51.65 22.15,-12.42 46.45,-18.63 72.92,-18.63 26.74,0 51.11,6.21 73.13,18.63 22.01,12.42 39.43,29.64 52.26,51.65 12.83,22.01 19.24,46.79 19.24,74.34 0,27.82 -6.41,52.74 -19.24,74.75 -12.83,22.01 -30.32,39.23 -52.47,51.65 -22.14,12.42 -46.45,18.64 -72.92,18.64zm0 -50.64c17.02,0 32.01,-3.85 44.97,-11.55 12.96,-7.7 23.09,-18.7 30.38,-33.02 7.3,-14.31 10.94,-30.92 10.94,-49.83 0,-18.9 -3.64,-35.45 -10.94,-49.62 -7.29,-14.18 -17.42,-25.05 -30.38,-32.62 -12.96,-7.56 -27.95,-11.34 -44.97,-11.34 -17.01,0 -32.07,3.78 -45.17,11.34 -13.1,7.57 -23.29,18.44 -30.59,32.62 -7.29,14.17 -10.93,30.72 -10.93,49.62 0,18.91 3.64,35.52 10.93,49.83 7.3,14.32 17.49,25.32 30.59,33.02 13.1,7.7 28.16,11.55 45.17,11.55zm290.88 -234.97l0 175.01c0,19.17 5,33.83 14.99,43.95 9.99,10.13 24.04,15.2 42.13,15.2 18.37,0 32.55,-5.07 42.54,-15.2 9.99,-10.12 14.99,-24.78 14.99,-43.95l0 -175.01 57.12 0 0 174.6c0,24.04 -5.2,44.36 -15.6,60.97 -10.39,16.61 -24.3,29.1 -41.72,37.48 -17.42,8.37 -36.8,12.56 -58.14,12.56 -21.06,0 -40.17,-4.19 -57.32,-12.56 -17.15,-8.38 -30.72,-20.87 -40.72,-37.48 -9.99,-16.61 -14.99,-36.93 -14.99,-60.97l0 -174.6 56.72 0z"/>
   <path class="fil3" d="M6412.13 9322.83c-11.16,22.3 -22.54,47.46 -32.77,73.35 -10.23,-25.89 -21.62,-51.05 -32.77,-73.35 -28.31,-56.61 -52.21,-91.85 -71.74,-113.71 19.53,-21.89 43.43,-57.07 71.74,-113.73 11.15,-22.26 22.54,-47.43 32.77,-73.32 10.23,25.89 21.61,51.06 32.77,73.32 28.31,56.66 52.19,91.84 71.73,113.73 -19.54,21.86 -43.42,57.1 -71.73,113.71zm3346.16 -113.71l-2343.16 -46.54 -345.46 46.41c-105.23,-3.15 -264.61,-78.92 -264.61,-127.18 0,47.75 -156.04,122.46 -261.27,127.09 -49.08,-4.65 -164.43,-236.22 -164.43,-331.7 0,95.48 -115.33,327.04 -164.43,331.7 -105.23,-4.64 -261.27,-79.34 -261.27,-127.09 0,48.26 -159.36,124.01 -264.61,127.18l-345.46 -46.41 -2343.15 46.54 2343.15 46.56 345.37 -46.41c105.24,3.11 264.7,78.9 264.7,127.17 0,-47.75 156.12,-122.48 261.35,-127.09 49.15,4.91 164.35,236.26 164.35,331.69 0,-95.43 115.21,-326.79 164.33,-331.69 105.24,4.59 261.37,79.34 261.37,127.09 0,-48.27 159.47,-124.06 264.7,-127.17l345.37 46.41 2343.16 -46.56z"/>
  </g>
 </g>
</svg>
